<svg xmlns="http://www.w3.org/2000/svg" width="1024" height="1024" viewBox="0 0 1024 1024">
<path d="M 476,1022 Z" fill="black" /><path d="M 475,1017 Z" fill="black" /><path d="M 473,1017 Z" fill="black" /><path d="M 788,1016 787,1017 Z" fill="black" /><path d="M 476,1014 476,1015 Z" fill="black" /><path d="M 474,1014 Z" fill="black" /><path d="M 793,1013 794,1013 Z" fill="black" /><path d="M 789,1012 790,1013 789,1014 788,1014 789,1014 790,1013 Z" fill="black" /><path d="M 475,1012 476,1012 Z" fill="black" /><path d="M 469,1010 Z" fill="black" /><path d="M 795,1009 Z" fill="black" /><path d="M 475,1009 477,1009 Z" fill="black" /><path d="M 472,1008 471,1009 Z" fill="black" /><path d="M 795,1007 Z" fill="black" /><path d="M 792,1007 791,1008 791,1009 791,1008 792,1007 793,1007 Z" fill="black" /><path d="M 461,1006 Z" fill="black" /><path d="M 463,1005 Z" fill="black" /><path d="M 798,1004 Z" fill="black" /><path d="M 455,1003 Z" fill="black" /><path d="M 465,1002 465,1004 Z" fill="black" /><path d="M 806,998 Z" fill="black" /><path d="M 804,998 Z" fill="black" /><path d="M 460,998 460,999 458,1001 459,1002 458,1001 460,999 461,1000 462,999 462,998 462,999 461,1000 460,999 Z" fill="black" /><path d="M 457,997 458,997 Z" fill="black" /><path d="M 450,997 Z" fill="black" /><path d="M 454,996 454,997 Z" fill="black" /><path d="M 807,995 Z" fill="black" /><path d="M 801,995 Z" fill="black" /><path d="M 448,994 447,995 448,996 447,995 Z" fill="black" /><path d="M 455,993 Z" fill="black" /><path d="M 808,992 Z" fill="black" /><path d="M 440,992 Z" fill="black" /><path d="M 446,991 Z" fill="black" /><path d="M 452,990 451,991 450,991 452,993 451,994 451,995 451,994 452,993 453,994 453,993 451,991 452,990 453,990 Z" fill="black" /><path d="M 812,989 Z" fill="black" /><path d="M 444,989 445,989 Z" fill="black" /><path d="M 442,989 442,990 Z" fill="black" /><path d="M 436,989 436,990 Z" fill="black" /><path d="M 440,988 Z" fill="black" /><path d="M 811,987 810,988 Z" fill="black" /><path d="M 438,987 Z" fill="black" /><path d="M 435,986 Z" fill="black" /><path d="M 426,985 Z" fill="black" /><path d="M 816,984 815,985 Z" fill="black" /><path d="M 811,984 811,985 813,985 812,985 Z" fill="black" /><path d="M 426,983 Z" fill="black" /><path d="M 814,982 Z" fill="black" /><path d="M 429,982 Z" fill="black" /><path d="M 420,982 Z" fill="black" /><path d="M 417,981 Z" fill="black" /><path d="M 817,980 816,981 Z" fill="black" /><path d="M 424,980 Z" fill="black" /><path d="M 417,979 Z" fill="black" /><path d="M 408,979 Z" fill="black" /><path d="M 822,978 Z" fill="black" /><path d="M 414,978 413,979 414,979 Z" fill="black" /><path d="M 411,977 Z" fill="black" /><path d="M 416,976 Z" fill="black" /><path d="M 392,976 Z" fill="black" /><path d="M 822,975 823,975 Z" fill="black" /><path d="M 422,974 422,975 419,978 418,977 419,978 423,974 Z" fill="black" /><path d="M 420,974 Z" fill="black" /><path d="M 418,974 Z" fill="black" /><path d="M 404,974 Z" fill="black" /><path d="M 823,973 Z" fill="black" /><path d="M 412,973 Z" fill="black" /><path d="M 396,973 Z" fill="black" /><path d="M 405,972 406,972 Z" fill="black" /><path d="M 392,972 Z" fill="black" /><path d="M 827,971 Z" fill="black" /><path d="M 395,971 Z" fill="black" /><path d="M 399,970 398,971 398,972 399,971 400,972 401,972 400,972 399,971 Z" fill="black" /><path d="M 830,969 Z" fill="black" /><path d="M 393,969 Z" fill="black" /><path d="M 397,968 396,969 395,969 396,969 Z" fill="black" /><path d="M 376,968 Z" fill="black" /><path d="M 385,966 386,967 Z" fill="black" /><path d="M 380,966 Z" fill="black" /><path d="M 375,966 Z" fill="black" /><path d="M 833,965 Z" fill="black" /><path d="M 370,965 370,966 Z" fill="black" /><path d="M 326,965 Z" fill="black" /><path d="M 358,964 358,965 Z" fill="black" /><path d="M 352,964 353,965 Z" fill="black" /><path d="M 367,963 368,964 Z" fill="black" /><path d="M 363,963 Z" fill="black" /><path d="M 374,962 375,963 375,964 375,963 376,962 Z" fill="black" /><path d="M 365,962 Z" fill="black" /><path d="M 841,961 Z" fill="black" /><path d="M 379,961 379,962 378,963 378,965 378,964 379,963 Z" fill="black" /><path d="M 367,961 Z" fill="black" /><path d="M 355,961 Z" fill="black" /><path d="M 350,959 Z" fill="black" /><path d="M 346,959 Z" fill="black" /><path d="M 343,959 Z" fill="black" /><path d="M 322,959 Z" fill="black" /><path d="M 337,958 Z" fill="black" /><path d="M 838,957 Z" fill="black" /><path d="M 342,957 Z" fill="black" /><path d="M 332,957 Z" fill="black" /><path d="M 848,956 Z" fill="black" /><path d="M 835,956 835,957 836,957 836,956 Z" fill="black" /><path d="M 347,956 Z" fill="black" /><path d="M 840,955 Z" fill="black" /><path d="M 335,955 Z" fill="black" /><path d="M 318,955 Z" fill="black" /><path d="M 326,954 Z" fill="black" /><path d="M 339,953 340,953 Z" fill="black" /><path d="M 323,953 Z" fill="black" /><path d="M 326,952 Z" fill="black" /><path d="M 850,951 Z" fill="black" /><path d="M 342,951 Z" fill="black" /><path d="M 294,951 Z" fill="black" /><path d="M 309,949 308,950 Z" fill="black" /><path d="M 305,949 305,950 Z" fill="black" /><path d="M 303,949 Z" fill="black" /><path d="M 307,948 Z" fill="black" /><path d="M 312,947 313,947 Z" fill="black" /><path d="M 297,947 297,948 296,949 298,949 297,948 298,947 Z" fill="black" /><path d="M 850,945 Z" fill="black" /><path d="M 306,945 308,945 309,946 309,947 309,946 308,945 Z" fill="black" /><path d="M 298,945 299,945 Z" fill="black" /><path d="M 304,944 302,946 301,945 302,946 303,945 304,945 Z" fill="black" /><path d="M 279,944 Z" fill="black" /><path d="M 850,943 Z" fill="black" /><path d="M 283,941 Z" fill="black" /><path d="M 286,940 Z" fill="black" /><path d="M 282,939 Z" fill="black" /><path d="M 275,939 Z" fill="black" /><path d="M 857,937 Z" fill="black" /><path d="M 283,937 Z" fill="black" /><path d="M 285,936 Z" fill="black" /><path d="M 280,936 280,937 Z" fill="black" /><path d="M 277,936 Z" fill="black" /><path d="M 272,936 Z" fill="black" /><path d="M 859,935 Z" fill="black" /><path d="M 274,935 Z" fill="black" /><path d="M 270,935 Z" fill="black" /><path d="M 266,934 Z" fill="black" /><path d="M 281,933 Z" fill="black" /><path d="M 276,933 276,934 Z" fill="black" /><path d="M 274,933 Z" fill="black" /><path d="M 272,933 Z" fill="black" /><path d="M 862,931 Z" fill="black" /><path d="M 859,929 859,931 Z" fill="black" /><path d="M 251,929 Z" fill="black" /><path d="M 267,928 269,930 268,931 269,930 Z" fill="black" /><path d="M 262,927 Z" fill="black" /><path d="M 861,924 Z" fill="black" /><path d="M 255,923 Z" fill="black" /><path d="M 861,922 Z" fill="black" /><path d="M 868,920 Z" fill="black" /><path d="M 864,920 Z" fill="black" /><path d="M 878,919 Z" fill="black" /><path d="M 872,919 Z" fill="black" /><path d="M 250,918 Z" fill="black" /><path d="M 235,918 Z" fill="black" /><path d="M 228,918 Z" fill="black" /><path d="M 869,917 Z" fill="black" /><path d="M 875,916 Z" fill="black" /><path d="M 872,915 873,915 Z" fill="black" /><path d="M 870,915 Z" fill="black" /><path d="M 233,915 232,916 Z" fill="black" /><path d="M 227,914 Z" fill="black" /><path d="M 232,912 232,913 230,915 232,913 234,913 233,913 Z" fill="black" /><path d="M 229,912 Z" fill="black" /><path d="M 227,912 Z" fill="black" /><path d="M 225,912 225,913 Z" fill="black" /><path d="M 234,911 Z" fill="black" /><path d="M 227,908 228,909 Z" fill="black" /><path d="M 204,908 Z" fill="black" /><path d="M 221,907 Z" fill="black" /><path d="M 211,907 Z" fill="black" /><path d="M 209,907 Z" fill="black" /><path d="M 217,906 Z" fill="black" /><path d="M 214,906 215,907 Z" fill="black" /><path d="M 219,905 Z" fill="black" /><path d="M 212,902 Z" fill="black" /><path d="M 215,901 214,902 Z" fill="black" /><path d="M 210,901 210,902 Z" fill="black" /><path d="M 201,901 Z" fill="black" /><path d="M 190,901 Z" fill="black" /><path d="M 889,900 Z" fill="black" /><path d="M 193,899 Z" fill="black" /><path d="M 200,898 199,899 Z" fill="black" /><path d="M 887,895 Z" fill="black" /><path d="M 193,894 Z" fill="black" /><path d="M 896,892 Z" fill="black" /><path d="M 189,892 Z" fill="black" /><path d="M 890,891 891,891 Z" fill="black" /><path d="M 187,891 Z" fill="black" /><path d="M 177,891 177,892 Z" fill="black" /><path d="M 892,889 Z" fill="black" /><path d="M 202,889 Z" fill="black" /><path d="M 186,889 Z" fill="black" /><path d="M 181,889 Z" fill="black" /><path d="M 896,888 Z" fill="black" /><path d="M 184,888 Z" fill="black" /><path d="M 894,887 Z" fill="black" /><path d="M 174,887 Z" fill="black" /><path d="M 897,886 Z" fill="black" /><path d="M 185,886 Z" fill="black" /><path d="M 178,886 Z" fill="black" /><path d="M 169,886 Z" fill="black" /><path d="M 183,885 183,886 182,887 183,886 Z" fill="black" /><path d="M 173,885 Z" fill="black" /><path d="M 893,884 894,885 895,885 894,885 Z" fill="black" /><path d="M 171,884 Z" fill="black" /><path d="M 168,884 Z" fill="black" /><path d="M 896,883 Z" fill="black" /><path d="M 177,883 176,884 177,883 178,884 Z" fill="black" /><path d="M 899,881 Z" fill="black" /><path d="M 893,881 Z" fill="black" /><path d="M 167,881 Z" fill="black" /><path d="M 902,879 Z" fill="black" /><path d="M 898,879 Z" fill="black" /><path d="M 164,878 164,879 163,880 163,881 163,880 164,879 165,880 164,879 Z" fill="black" /><path d="M 168,876 Z" fill="black" /><path d="M 166,876 Z" fill="black" /><path d="M 164,875 Z" fill="black" /><path d="M 158,875 Z" fill="black" /><path d="M 166,874 Z" fill="black" /><path d="M 161,873 Z" fill="black" /><path d="M 910,871 Z" fill="black" /><path d="M 904,871 Z" fill="black" /><path d="M 148,870 Z" fill="black" /><path d="M 145,870 Z" fill="black" /><path d="M 156,869 Z" fill="black" /><path d="M 154,869 Z" fill="black" /><path d="M 157,867 Z" fill="black" /><path d="M 151,867 Z" fill="black" /><path d="M 909,864 Z" fill="black" /><path d="M 154,864 154,865 155,866 156,865 157,865 155,865 Z" fill="black" /><path d="M 144,864 144,865 Z" fill="black" /><path d="M 916,862 Z" fill="black" /><path d="M 146,862 Z" fill="black" /><path d="M 911,860 Z" fill="black" /><path d="M 909,860 Z" fill="black" /><path d="M 151,859 149,861 150,862 149,863 148,863 150,863 150,861 151,860 152,861 153,861 Z" fill="black" /><path d="M 143,859 144,860 Z" fill="black" /><path d="M 910,858 911,858 Z" fill="black" /><path d="M 149,858 Z" fill="black" /><path d="M 142,855 Z" fill="black" /><path d="M 134,854 Z" fill="black" /><path d="M 132,853 Z" fill="black" /><path d="M 136,851 137,851 Z" fill="black" /><path d="M 131,851 Z" fill="black" /><path d="M 917,850 917,852 918,851 Z" fill="black" /><path d="M 135,849 136,849 Z" fill="black" /><path d="M 920,848 919,849 Z" fill="black" /><path d="M 924,846 925,846 Z" fill="black" /><path d="M 128,845 129,846 Z" fill="black" /><path d="M 124,845 Z" fill="black" /><path d="M 922,844 923,844 Z" fill="black" /><path d="M 128,842 127,843 Z" fill="black" /><path d="M 922,841 923,842 923,841 Z" fill="black" /><path d="M 925,840 Z" fill="black" /><path d="M 927,839 Z" fill="black" /><path d="M 123,839 Z" fill="black" /><path d="M 924,838 Z" fill="black" /><path d="M 930,837 929,838 Z" fill="black" /><path d="M 926,836 926,837 Z" fill="black" /><path d="M 123,836 Z" fill="black" /><path d="M 930,835 Z" fill="black" /><path d="M 118,835 119,836 Z" fill="black" /><path d="M 111,835 Z" fill="black" /><path d="M 927,833 Z" fill="black" /><path d="M 115,833 116,833 Z" fill="black" /><path d="M 936,832 Z" fill="black" /><path d="M 114,831 Z" fill="black" /><path d="M 117,830 118,831 Z" fill="black" /><path d="M 935,829 936,829 937,830 936,829 Z" fill="black" /><path d="M 111,829 111,830 110,831 111,830 Z" fill="black" /><path d="M 111,826 111,827 Z" fill="black" /><path d="M 112,824 Z" fill="black" /><path d="M 100,822 Z" fill="black" /><path d="M 944,821 Z" fill="black" /><path d="M 939,821 Z" fill="black" /><path d="M 102,821 Z" fill="black" /><path d="M 98,819 Z" fill="black" /><path d="M 944,818 Z" fill="black" /><path d="M 944,816 Z" fill="black" /><path d="M 95,815 Z" fill="black" /><path d="M 945,814 Z" fill="black" /><path d="M 98,812 98,813 97,814 97,815 100,815 100,813 100,814 99,815 98,814 Z" fill="black" /><path d="M 951,811 Z" fill="black" /><path d="M 947,811 947,812 948,813 947,812 Z" fill="black" /><path d="M 96,811 95,812 Z" fill="black" /><path d="M 90,809 Z" fill="black" /><path d="M 952,808 Z" fill="black" /><path d="M 949,808 Z" fill="black" /><path d="M 86,807 Z" fill="black" /><path d="M 81,802 Z" fill="black" /><path d="M 950,801 950,802 949,803 949,805 950,805 950,803 951,802 952,802 951,802 Z" fill="black" /><path d="M 961,798 Z" fill="black" /><path d="M 79,797 Z" fill="black" /><path d="M 77,797 Z" fill="black" /><path d="M 958,796 Z" fill="black" /><path d="M 956,795 955,796 Z" fill="black" /><path d="M 85,795 Z" fill="black" /><path d="M 81,794 81,795 82,796 83,796 83,795 82,795 Z" fill="black" /><path d="M 962,793 Z" fill="black" /><path d="M 85,793 Z" fill="black" /><path d="M 83,792 83,793 Z" fill="black" /><path d="M 72,792 Z" fill="black" /><path d="M 966,791 Z" fill="black" /><path d="M 66,791 Z" fill="black" /><path d="M 73,790 74,791 Z" fill="black" /><path d="M 71,789 Z" fill="black" /><path d="M 67,788 Z" fill="black" /><path d="M 977,787 Z" fill="black" /><path d="M 71,785 70,786 69,786 70,786 71,787 70,786 71,785 72,785 Z" fill="black" /><path d="M 66,785 Z" fill="black" /><path d="M 976,784 Z" fill="black" /><path d="M 972,782 Z" fill="black" /><path d="M 971,779 Z" fill="black" /><path d="M 974,778 Z" fill="black" /><path d="M 970,777 Z" fill="black" /><path d="M 969,774 969,775 Z" fill="black" /><path d="M 57,772 Z" fill="black" /><path d="M 974,771 Z" fill="black" /><path d="M 971,771 971,772 973,774 973,773 972,773 971,772 Z" fill="black" /><path d="M 61,771 62,771 Z" fill="black" /><path d="M 59,771 Z" fill="black" /><path d="M 974,765 975,765 Z" fill="black" /><path d="M 979,763 979,764 Z" fill="black" /><path d="M 977,763 Z" fill="black" /><path d="M 52,759 Z" fill="black" /><path d="M 50,759 Z" fill="black" /><path d="M 985,757 Z" fill="black" /><path d="M 45,756 Z" fill="black" /><path d="M 51,755 52,756 52,757 52,756 Z" fill="black" /><path d="M 47,755 Z" fill="black" /><path d="M 41,755 Z" fill="black" /><path d="M 981,754 982,755 983,754 Z" fill="black" /><path d="M 49,754 Z" fill="black" /><path d="M 993,749 Z" fill="black" /><path d="M 44,749 Z" fill="black" /><path d="M 41,749 Z" fill="black" /><path d="M 991,747 Z" fill="black" /><path d="M 43,746 Z" fill="black" /><path d="M 998,745 Z" fill="black" /><path d="M 42,742 43,743 44,743 44,742 Z" fill="black" /><path d="M 39,739 Z" fill="black" /><path d="M 995,738 Z" fill="black" /><path d="M 41,738 43,740 43,738 Z" fill="black" /><path d="M 998,735 997,736 997,737 997,736 Z" fill="black" /><path d="M 995,734 994,735 995,736 994,735 Z" fill="black" /><path d="M 37,732 38,733 Z" fill="black" /><path d="M 34,731 Z" fill="black" /><path d="M 1002,729 1003,729 Z" fill="black" /><path d="M 1000,727 1000,728 Z" fill="black" /><path d="M 1004,726 Z" fill="black" /><path d="M 1007,723 Z" fill="black" /><path d="M 1003,721 1003,722 Z" fill="black" /><path d="M 1013,719 Z" fill="black" /><path d="M 25,718 Z" fill="black" /><path d="M 1006,717 Z" fill="black" /><path d="M 1001,717 1001,718 1002,719 1000,721 999,721 998,722 999,723 998,722 999,721 1001,721 1001,720 1002,719 1003,719 1002,719 1001,718 Z" fill="black" /><path d="M 1008,715 1008,717 Z" fill="black" /><path d="M 27,715 Z" fill="black" /><path d="M 1006,714 Z" fill="black" /><path d="M 1004,713 Z" fill="black" /><path d="M 27,713 Z" fill="black" /><path d="M 1007,712 1008,712 1009,713 1008,712 Z" fill="black" /><path d="M 1009,710 1010,710 Z" fill="black" /><path d="M 1009,708 Z" fill="black" /><path d="M 24,708 Z" fill="black" /><path d="M 1015,707 Z" fill="black" /><path d="M 1011,707 Z" fill="black" /><path d="M 1015,705 Z" fill="black" /><path d="M 1010,705 1011,705 Z" fill="black" /><path d="M 1007,705 1008,706 Z" fill="black" /><path d="M 1006,703 Z" fill="black" /><path d="M 17,702 Z" fill="black" /><path d="M 1012,701 Z" fill="black" /><path d="M 1009,700 1009,701 1010,701 1010,700 Z" fill="black" /><path d="M 1006,700 Z" fill="black" /><path d="M 23,700 Z" fill="black" /><path d="M 1010,697 1011,697 Z" fill="black" /><path d="M 23,697 23,698 Z" fill="black" /><path d="M 19,696 Z" fill="black" /><path d="M 1018,695 Z" fill="black" /><path d="M 17,694 16,695 16,696 16,695 17,694 18,694 Z" fill="black" /><path d="M 1020,692 1020,693 Z" fill="black" /><path d="M 1017,692 1016,693 Z" fill="black" /><path d="M 19,691 19,692 Z" fill="black" /><path d="M 1014,689 1014,690 1012,692 1011,691 1013,693 1012,692 1013,691 1014,691 1014,690 1015,689 Z" fill="black" /><path d="M 14,687 Z" fill="black" /><path d="M 4,687 Z" fill="black" /><path d="M 1012,686 1011,687 1010,687 1011,687 1012,688 1011,689 1012,688 1011,687 Z" fill="black" /><path d="M 13,685 Z" fill="black" /><path d="M 1009,684 1010,685 Z" fill="black" /><path d="M 1011,683 Z" fill="black" /><path d="M 14,682 14,683 Z" fill="black" /><path d="M 1015,681 1014,682 Z" fill="black" /><path d="M 11,681 Z" fill="black" /><path d="M 2,679 Z" fill="black" /><path d="M 5,678 4,679 Z" fill="black" /><path d="M 1014,677 Z" fill="black" /><path d="M 14,677 13,678 12,678 11,679 12,678 13,678 14,679 Z" fill="black" /><path d="M 15,675 Z" fill="black" /><path d="M 11,675 11,676 Z" fill="black" /><path d="M 6,675 Z" fill="black" /><path d="M 3,675 Z" fill="black" /><path d="M 1016,674 1017,675 1016,676 1017,675 Z" fill="black" /><path d="M 1018,673 Z" fill="black" /><path d="M 1010,673 Z" fill="black" /><path d="M 12,673 Z" fill="black" /><path d="M 5,673 Z" fill="black" /><path d="M 1016,672 Z" fill="black" /><path d="M 6,669 Z" fill="black" /><path d="M 1,669 Z" fill="black" /><path d="M 1022,668 Z" fill="black" /><path d="M 1018,667 1019,667 Z" fill="black" /><path d="M 1014,667 Z" fill="black" /><path d="M 3,667 4,668 4,670 3,671 2,671 3,671 4,670 5,671 6,671 5,671 4,670 4,668 Z" fill="black" /><path d="M 1015,665 Z" fill="black" /><path d="M 1011,665 1011,666 1012,665 Z" fill="black" /><path d="M 0,664 Z" fill="black" /><path d="M 1015,661 Z" fill="black" /><path d="M 1011,661 Z" fill="black" /><path d="M 1009,661 Z" fill="black" /><path d="M 1019,659 Z" fill="black" /><path d="M 3,657 3,658 2,659 5,662 3,664 5,662 4,661 4,660 3,660 2,659 3,658 4,658 Z" fill="black" /><path d="M 0,656 Z" fill="black" /><path d="M 1010,654 Z" fill="black" /><path d="M 3,654 4,655 6,655 5,654 Z" fill="black" /><path d="M 1,654 Z" fill="black" /><path d="M 1008,653 Z" fill="black" /><path d="M 1014,652 1013,653 Z" fill="black" /><path d="M 1009,651 Z" fill="black" /><path d="M 1,651 0,652 1,651 2,651 3,652 2,651 Z" fill="black" /><path d="M 1012,646 Z" fill="black" /><path d="M 1013,641 Z" fill="black" /><path d="M 1006,637 1006,638 Z" fill="black" /><path d="M 1007,634 Z" fill="black" /><path d="M 1004,632 1003,633 1004,632 1005,632 Z" fill="black" /><path d="M 1001,631 Z" fill="black" /><path d="M 1004,630 Z" fill="black" /><path d="M 1001,627 Z" fill="black" /><path d="M 999,627 Z" fill="black" /><path d="M 997,625 Z" fill="black" /><path d="M 1003,623 Z" fill="black" /><path d="M 998,618 Z" fill="black" /><path d="M 996,614 Z" fill="black" /><path d="M 993,612 992,613 993,612 994,613 Z" fill="black" /><path d="M 994,606 Z" fill="black" /><path d="M 991,601 Z" fill="black" /><path d="M 990,599 Z" fill="black" /><path d="M 989,589 Z" fill="black" /><path d="M 985,588 Z" fill="black" /><path d="M 986,585 Z" fill="black" /><path d="M 986,581 Z" fill="black" /><path d="M 979,576 979,577 980,577 Z" fill="black" /><path d="M 976,559 Z" fill="black" /><path d="M 972,559 Z" fill="black" /><path d="M 970,559 Z" fill="black" /><path d="M 975,556 Z" fill="black" /><path d="M 968,554 Z" fill="black" /><path d="M 965,554 Z" fill="black" /><path d="M 966,551 Z" fill="black" /><path d="M 966,548 965,549 Z" fill="black" /><path d="M 963,545 964,546 963,547 963,548 963,547 964,546 Z" fill="black" /><path d="M 956,534 Z" fill="black" /><path d="M 950,525 949,526 948,526 949,526 Z" fill="black" /><path d="M 949,521 Z" fill="black" /><path d="M 950,518 951,518 Z" fill="black" /><path d="M 948,518 Z" fill="black" /><path d="M 943,513 943,514 Z" fill="black" /><path d="M 942,511 Z" fill="black" /><path d="M 941,505 943,507 942,506 943,505 942,506 Z" fill="black" /><path d="M 937,502 Z" fill="black" /><path d="M 935,502 Z" fill="black" /><path d="M 933,498 Z" fill="black" /><path d="M 943,497 Z" fill="black" /><path d="M 935,497 Z" fill="black" /><path d="M 933,496 Z" fill="black" /><path d="M 937,494 938,495 Z" fill="black" /><path d="M 934,494 935,494 Z" fill="black" /><path d="M 935,489 Z" fill="black" /><path d="M 934,485 Z" fill="black" /><path d="M 930,478 930,479 931,480 930,481 931,480 930,479 Z" fill="black" /><path d="M 926,470 Z" fill="black" /><path d="M 923,470 Z" fill="black" /><path d="M 921,465 Z" fill="black" /><path d="M 922,461 921,462 921,463 921,462 Z" fill="black" /><path d="M 920,460 Z" fill="black" /><path d="M 916,457 Z" fill="black" /><path d="M 917,454 Z" fill="black" /><path d="M 920,451 Z" fill="black" /><path d="M 917,450 917,451 Z" fill="black" /><path d="M 915,449 Z" fill="black" /><path d="M 919,448 Z" fill="black" /><path d="M 914,441 Z" fill="black" /><path d="M 917,440 Z" fill="black" /><path d="M 913,436 Z" fill="black" /><path d="M 921,435 Z" fill="black" /><path d="M 915,433 Z" fill="black" /><path d="M 910,433 Z" fill="black" /><path d="M 914,429 914,430 Z" fill="black" /><path d="M 912,429 912,430 Z" fill="black" /><path d="M 910,429 910,430 Z" fill="black" /><path d="M 910,427 Z" fill="black" /><path d="M 911,425 Z" fill="black" /><path d="M 909,424 Z" fill="black" /><path d="M 913,422 Z" fill="black" /><path d="M 906,417 907,418 Z" fill="black" /><path d="M 910,414 Z" fill="black" /><path d="M 908,414 Z" fill="black" /><path d="M 906,406 904,408 906,410 906,411 906,410 904,408 905,407 906,407 907,408 906,407 Z" fill="black" /><path d="M 912,405 Z" fill="black" /><path d="M 909,404 Z" fill="black" /><path d="M 905,403 905,404 Z" fill="black" /><path d="M 905,401 908,401 Z" fill="black" /><path d="M 907,399 908,399 Z" fill="black" /><path d="M 907,397 908,397 Z" fill="black" /><path d="M 906,395 Z" fill="black" /><path d="M 906,385 907,386 Z" fill="black" /><path d="M 903,385 904,386 904,389 905,390 904,391 905,390 906,391 904,389 904,385 Z" fill="black" /><path d="M 909,384 Z" fill="black" /><path d="M 907,383 Z" fill="black" /><path d="M 912,377 Z" fill="black" /><path d="M 907,377 Z" fill="black" /><path d="M 909,375 Z" fill="black" /><path d="M 906,375 Z" fill="black" /><path d="M 913,374 Z" fill="black" /><path d="M 911,374 Z" fill="black" /><path d="M 907,369 Z" fill="black" /><path d="M 905,368 905,369 Z" fill="black" /><path d="M 910,365 Z" fill="black" /><path d="M 907,365 908,366 Z" fill="black" /><path d="M 907,363 Z" fill="black" /><path d="M 903,363 904,363 Z" fill="black" /><path d="M 904,360 905,361 906,361 905,361 Z" fill="black" /><path d="M 907,351 Z" fill="black" /><path d="M 905,351 Z" fill="black" /><path d="M 904,348 904,349 Z" fill="black" /><path d="M 903,344 905,344 906,345 907,345 906,345 905,344 Z" fill="black" /><path d="M 906,342 Z" fill="black" /><path d="M 902,342 Z" fill="black" /><path d="M 904,336 Z" fill="black" /><path d="M 902,331 901,332 904,332 903,332 Z" fill="black" /><path d="M 904,320 Z" fill="black" /><path d="M 0,320 Z" fill="black" /><path d="M 906,318 Z" fill="black" /><path d="M 902,316 903,317 902,318 902,320 902,319 903,318 903,317 Z" fill="black" /><path d="M 906,313 Z" fill="black" /><path d="M 3,309 Z" fill="black" /><path d="M 902,307 903,308 905,308 904,308 903,307 Z" fill="black" /><path d="M 4,307 Z" fill="black" /><path d="M 906,303 Z" fill="black" /><path d="M 908,302 Z" fill="black" /><path d="M 902,302 901,303 901,304 901,303 Z" fill="black" /><path d="M 1,302 Z" fill="black" /><path d="M 905,301 Z" fill="black" /><path d="M 6,299 6,300 5,301 4,301 4,302 5,303 6,302 5,301 6,300 Z" fill="black" /><path d="M 1,299 0,300 Z" fill="black" /><path d="M 903,298 903,299 902,300 901,299 901,300 902,300 903,299 Z" fill="black" /><path d="M 905,296 Z" fill="black" /><path d="M 5,296 Z" fill="black" /><path d="M 3,295 Z" fill="black" /><path d="M 1,295 Z" fill="black" /><path d="M 908,294 Z" fill="black" /><path d="M 3,293 4,293 5,294 5,293 Z" fill="black" /><path d="M 905,292 905,293 Z" fill="black" /><path d="M 1,292 0,293 Z" fill="black" /><path d="M 902,291 903,291 Z" fill="black" /><path d="M 906,289 Z" fill="black" /><path d="M 7,289 6,290 7,289 8,289 Z" fill="black" /><path d="M 906,287 Z" fill="black" /><path d="M 2,287 3,288 2,289 3,288 Z" fill="black" /><path d="M 7,283 6,284 Z" fill="black" /><path d="M 2,283 Z" fill="black" /><path d="M 11,282 Z" fill="black" /><path d="M 7,281 Z" fill="black" /><path d="M 904,280 904,281 905,281 Z" fill="black" /><path d="M 9,279 10,279 Z" fill="black" /><path d="M 904,278 Z" fill="black" /><path d="M 12,278 Z" fill="black" /><path d="M 5,278 Z" fill="black" /><path d="M 2,277 Z" fill="black" /><path d="M 8,276 Z" fill="black" /><path d="M 11,275 11,276 12,276 13,275 12,276 Z" fill="black" /><path d="M 4,275 Z" fill="black" /><path d="M 903,273 Z" fill="black" /><path d="M 900,271 Z" fill="black" /><path d="M 906,270 Z" fill="black" /><path d="M 5,270 Z" fill="black" /><path d="M 900,269 Z" fill="black" /><path d="M 11,267 11,269 12,269 12,268 Z" fill="black" /><path d="M 902,266 903,267 903,268 904,269 903,268 903,267 Z" fill="black" /><path d="M 14,266 Z" fill="black" /><path d="M 12,264 Z" fill="black" /><path d="M 16,263 Z" fill="black" /><path d="M 908,260 Z" fill="black" /><path d="M 10,260 Z" fill="black" /><path d="M 903,259 Z" fill="black" /><path d="M 900,259 Z" fill="black" /><path d="M 898,259 Z" fill="black" /><path d="M 11,257 Z" fill="black" /><path d="M 897,256 Z" fill="black" /><path d="M 900,254 Z" fill="black" /><path d="M 898,254 Z" fill="black" /><path d="M 14,254 14,255 Z" fill="black" /><path d="M 901,252 Z" fill="black" /><path d="M 895,251 896,252 895,253 894,253 894,254 896,252 Z" fill="black" /><path d="M 17,251 Z" fill="black" /><path d="M 904,248 Z" fill="black" /><path d="M 21,248 Z" fill="black" /><path d="M 18,248 18,249 19,249 Z" fill="black" /><path d="M 16,247 Z" fill="black" /><path d="M 893,245 Z" fill="black" /><path d="M 895,243 Z" fill="black" /><path d="M 16,242 Z" fill="black" /><path d="M 892,241 Z" fill="black" /><path d="M 890,241 Z" fill="black" /><path d="M 896,240 Z" fill="black" /><path d="M 891,239 Z" fill="black" /><path d="M 22,239 Z" fill="black" /><path d="M 20,237 Z" fill="black" /><path d="M 896,236 Z" fill="black" /><path d="M 19,235 Z" fill="black" /><path d="M 892,230 Z" fill="black" /><path d="M 889,230 Z" fill="black" /><path d="M 889,227 889,228 Z" fill="black" /><path d="M 887,227 Z" fill="black" /><path d="M 885,227 Z" fill="black" /><path d="M 29,227 Z" fill="black" /><path d="M 887,225 Z" fill="black" /><path d="M 28,225 Z" fill="black" /><path d="M 890,223 Z" fill="black" /><path d="M 886,223 885,224 Z" fill="black" /><path d="M 26,222 27,223 Z" fill="black" /><path d="M 883,221 Z" fill="black" /><path d="M 32,221 Z" fill="black" /><path d="M 30,220 30,223 Z" fill="black" /><path d="M 881,219 881,220 Z" fill="black" /><path d="M 884,217 Z" fill="black" /><path d="M 882,217 Z" fill="black" /><path d="M 880,216 Z" fill="black" /><path d="M 878,214 878,215 Z" fill="black" /><path d="M 880,213 Z" fill="black" /><path d="M 876,212 876,213 Z" fill="black" /><path d="M 30,212 Z" fill="black" /><path d="M 873,211 Z" fill="black" /><path d="M 36,210 35,211 Z" fill="black" /><path d="M 877,209 Z" fill="black" /><path d="M 875,209 Z" fill="black" /><path d="M 871,208 872,208 873,209 872,208 Z" fill="black" /><path d="M 875,207 Z" fill="black" /><path d="M 876,204 Z" fill="black" /><path d="M 38,204 Z" fill="black" /><path d="M 39,201 Z" fill="black" /><path d="M 869,200 869,201 Z" fill="black" /><path d="M 876,199 Z" fill="black" /><path d="M 38,199 Z" fill="black" /><path d="M 870,197 Z" fill="black" /><path d="M 868,197 Z" fill="black" /><path d="M 40,197 40,199 41,198 Z" fill="black" /><path d="M 874,195 Z" fill="black" /><path d="M 872,192 Z" fill="black" /><path d="M 40,192 Z" fill="black" /><path d="M 43,191 Z" fill="black" /><path d="M 864,189 Z" fill="black" /><path d="M 44,189 45,190 Z" fill="black" /><path d="M 47,187 46,188 47,189 46,188 Z" fill="black" /><path d="M 861,185 Z" fill="black" /><path d="M 50,185 Z" fill="black" /><path d="M 864,184 Z" fill="black" /><path d="M 48,184 Z" fill="black" /><path d="M 858,183 Z" fill="black" /><path d="M 48,180 Z" fill="black" /><path d="M 857,177 Z" fill="black" /><path d="M 55,177 Z" fill="black" /><path d="M 50,177 51,178 Z" fill="black" /><path d="M 57,171 56,172 Z" fill="black" /><path d="M 848,170 847,171 Z" fill="black" /><path d="M 841,166 842,167 842,166 Z" fill="black" /><path d="M 60,166 Z" fill="black" /><path d="M 58,166 Z" fill="black" /><path d="M 846,165 Z" fill="black" /><path d="M 843,164 844,165 844,166 844,165 Z" fill="black" /><path d="M 848,163 Z" fill="black" /><path d="M 841,162 Z" fill="black" /><path d="M 68,158 Z" fill="black" /><path d="M 65,158 Z" fill="black" /><path d="M 841,157 Z" fill="black" /><path d="M 836,157 838,159 Z" fill="black" /><path d="M 70,155 Z" fill="black" /><path d="M 835,153 Z" fill="black" /><path d="M 833,153 Z" fill="black" /><path d="M 74,146 Z" fill="black" /><path d="M 80,144 81,145 Z" fill="black" /><path d="M 86,143 Z" fill="black" /><path d="M 84,141 Z" fill="black" /><path d="M 86,140 86,141 Z" fill="black" /><path d="M 85,138 Z" fill="black" /><path d="M 823,137 Z" fill="black" /><path d="M 92,137 92,138 91,139 93,137 Z" fill="black" /><path d="M 87,136 87,137 Z" fill="black" /><path d="M 820,134 Z" fill="black" /><path d="M 92,134 91,135 Z" fill="black" /><path d="M 84,134 Z" fill="black" /><path d="M 90,133 Z" fill="black" /><path d="M 96,131 Z" fill="black" /><path d="M 94,130 Z" fill="black" /><path d="M 811,129 Z" fill="black" /><path d="M 816,128 Z" fill="black" /><path d="M 93,128 Z" fill="black" /><path d="M 811,127 Z" fill="black" /><path d="M 97,126 97,127 96,128 95,128 96,128 97,129 96,128 97,127 Z" fill="black" /><path d="M 814,125 Z" fill="black" /><path d="M 97,124 Z" fill="black" /><path d="M 808,122 Z" fill="black" /><path d="M 806,122 Z" fill="black" /><path d="M 804,121 Z" fill="black" /><path d="M 96,120 Z" fill="black" /><path d="M 804,118 Z" fill="black" /><path d="M 801,118 Z" fill="black" /><path d="M 100,118 Z" fill="black" /><path d="M 809,115 Z" fill="black" /><path d="M 111,115 Z" fill="black" /><path d="M 115,114 Z" fill="black" /><path d="M 802,113 803,113 Z" fill="black" /><path d="M 106,113 Z" fill="black" /><path d="M 104,112 Z" fill="black" /><path d="M 118,111 Z" fill="black" /><path d="M 116,110 116,111 Z" fill="black" /><path d="M 113,110 114,110 Z" fill="black" /><path d="M 798,109 797,110 799,112 798,113 800,111 801,111 802,110 801,110 799,112 797,110 Z" fill="black" /><path d="M 794,109 Z" fill="black" /><path d="M 108,109 Z" fill="black" /><path d="M 120,108 Z" fill="black" /><path d="M 117,107 Z" fill="black" /><path d="M 115,107 Z" fill="black" /><path d="M 791,105 790,106 791,106 Z" fill="black" /><path d="M 119,105 Z" fill="black" /><path d="M 800,104 Z" fill="black" /><path d="M 786,104 787,105 788,105 787,104 Z" fill="black" /><path d="M 123,104 Z" fill="black" /><path d="M 791,102 Z" fill="black" /><path d="M 785,100 Z" fill="black" /><path d="M 128,98 Z" fill="black" /><path d="M 784,96 Z" fill="black" /><path d="M 128,96 Z" fill="black" /><path d="M 125,96 Z" fill="black" /><path d="M 780,93 Z" fill="black" /><path d="M 137,91 Z" fill="black" /><path d="M 135,91 Z" fill="black" /><path d="M 776,90 Z" fill="black" /><path d="M 774,87 Z" fill="black" /><path d="M 141,87 Z" fill="black" /><path d="M 139,87 Z" fill="black" /><path d="M 780,86 Z" fill="black" /><path d="M 137,86 Z" fill="black" /><path d="M 774,84 Z" fill="black" /><path d="M 146,81 Z" fill="black" /><path d="M 765,80 765,81 Z" fill="black" /><path d="M 153,78 Z" fill="black" /><path d="M 766,77 Z" fill="black" /><path d="M 150,77 151,77 Z" fill="black" /><path d="M 764,76 764,77 Z" fill="black" /><path d="M 153,75 Z" fill="black" /><path d="M 756,73 Z" fill="black" /><path d="M 760,72 Z" fill="black" /><path d="M 756,71 Z" fill="black" /><path d="M 158,71 Z" fill="black" /><path d="M 156,70 Z" fill="black" /><path d="M 747,68 Z" fill="black" /><path d="M 160,68 Z" fill="black" /><path d="M 752,67 Z" fill="black" /><path d="M 755,66 Z" fill="black" /><path d="M 751,65 Z" fill="black" /><path d="M 746,65 Z" fill="black" /><path d="M 162,65 Z" fill="black" /><path d="M 160,64 Z" fill="black" /><path d="M 748,62 748,63 Z" fill="black" /><path d="M 747,60 Z" fill="black" /><path d="M 742,59 742,60 743,60 745,62 746,62 745,61 744,61 Z" fill="black" /><path d="M 163,58 Z" fill="black" /><path d="M 745,57 Z" fill="black" /><path d="M 743,56 743,57 Z" fill="black" /><path d="M 165,56 Z" fill="black" /><path d="M 740,54 Z" fill="black" /><path d="M 742,53 Z" fill="black" /><path d="M 171,52 Z" fill="black" /><path d="M 738,49 Z" fill="black" /><path d="M 736,49 Z" fill="black" /><path d="M 179,48 178,49 179,49 Z" fill="black" /><path d="M 734,46 Z" fill="black" /><path d="M 182,46 Z" fill="black" /><path d="M 175,46 Z" fill="black" /><path d="M 729,45 Z" fill="black" /><path d="M 190,45 Z" fill="black" /><path d="M 180,45 Z" fill="black" /><path d="M 735,44 Z" fill="black" /><path d="M 183,44 Z" fill="black" /><path d="M 189,43 Z" fill="black" /><path d="M 187,43 Z" fill="black" /><path d="M 727,42 727,43 Z" fill="black" /><path d="M 725,42 725,43 Z" fill="black" /><path d="M 729,41 Z" fill="black" /><path d="M 175,41 174,42 Z" fill="black" /><path d="M 181,40 Z" fill="black" /><path d="M 722,39 723,40 Z" fill="black" /><path d="M 725,37 Z" fill="black" /><path d="M 194,37 Z" fill="black" /><path d="M 718,35 720,37 721,36 720,37 Z" fill="black" /><path d="M 194,35 Z" fill="black" /><path d="M 192,34 Z" fill="black" /><path d="M 719,33 Z" fill="black" /><path d="M 715,33 Z" fill="black" /><path d="M 195,33 Z" fill="black" /><path d="M 716,31 717,32 Z" fill="black" /><path d="M 714,31 Z" fill="black" /><path d="M 196,30 Z" fill="black" /><path d="M 192,30 Z" fill="black" /><path d="M 711,29 Z" fill="black" /><path d="M 204,29 204,30 Z" fill="black" /><path d="M 198,28 Z" fill="black" /><path d="M 710,27 Z" fill="black" /><path d="M 206,27 206,28 Z" fill="black" /><path d="M 203,25 Z" fill="black" /><path d="M 208,24 Z" fill="black" /><path d="M 214,23 212,25 213,25 213,24 Z" fill="black" /><path d="M 205,23 Z" fill="black" /><path d="M 211,22 212,22 Z" fill="black" /><path d="M 708,21 707,22 Z" fill="black" /><path d="M 214,21 Z" fill="black" /><path d="M 211,20 Z" fill="black" /><path d="M 215,19 Z" fill="black" /><path d="M 213,19 Z" fill="black" /><path d="M 211,18 Z" fill="black" /><path d="M 705,17 Z" fill="black" /><path d="M 700,17 Z" fill="black" /><path d="M 697,17 698,17 Z" fill="black" /><path d="M 219,17 220,17 Z" fill="black" /><path d="M 217,17 Z" fill="black" /><path d="M 705,15 Z" fill="black" /><path d="M 222,14 Z" fill="black" /><path d="M 696,13 Z" fill="black" /><path d="M 692,11 Z" fill="black" /><path d="M 691,9 Z" fill="black" /><path d="M 696,8 Z" fill="black" /><path d="M 225,7 224,8 Z" fill="black" /><path d="M 681,5 Z" fill="black" /><path d="M 686,3 Z" fill="black" /><path d="M 683,3 Z" fill="black" /><path d="M 679,2 679,3 Z" fill="black" /><path d="M 235,2 Z" fill="black" /><path d="M 676,0 675,1 676,1 Z" fill="black" /><path d="M 237,0 238,1 237,2 237,3 237,2 238,1 240,3 238,5 236,5 235,4 236,5 236,6 235,7 233,5 233,3 233,4 232,5 233,5 234,6 231,9 230,8 230,7 229,6 230,5 228,7 229,6 230,7 230,8 233,11 232,12 231,12 230,11 229,12 228,11 227,12 226,11 225,11 226,11 227,12 227,13 226,14 225,13 224,13 223,12 226,15 225,16 224,16 224,18 223,19 222,19 223,20 222,21 222,23 221,24 220,23 220,22 218,20 218,22 219,22 221,24 219,26 218,25 217,25 216,24 217,25 215,27 211,27 211,28 210,29 209,28 209,27 208,28 209,28 210,29 209,30 209,31 208,32 207,31 208,32 204,36 203,35 203,34 202,33 203,32 201,30 202,29 201,30 200,29 203,32 202,33 201,33 200,32 197,32 197,33 198,32 199,33 200,32 201,33 202,33 203,34 202,35 201,35 200,36 199,35 199,36 200,37 200,38 201,39 200,40 199,40 198,41 197,40 197,39 198,38 197,37 196,37 196,38 195,39 192,39 192,40 191,41 191,43 192,44 192,45 193,46 192,47 191,47 192,48 191,49 190,49 189,48 189,47 188,46 188,45 186,45 187,45 188,46 188,48 187,49 187,52 186,53 185,52 185,51 184,52 183,52 182,51 183,50 183,49 185,47 183,49 183,50 180,53 179,53 178,54 177,53 177,52 176,52 178,54 177,55 175,55 173,53 174,52 174,50 174,51 173,52 173,53 171,55 169,53 171,55 172,55 173,56 172,55 172,54 173,53 175,55 175,56 176,56 177,57 175,59 174,58 170,58 168,56 167,57 168,56 169,57 169,58 168,59 169,60 167,62 165,60 163,62 164,62 164,61 165,60 167,62 167,63 166,64 167,65 166,66 165,66 165,67 164,68 163,67 162,67 163,68 160,71 160,72 157,75 160,72 160,71 161,70 162,70 163,71 163,72 162,73 163,74 163,75 162,76 161,75 160,75 161,75 162,76 161,77 160,77 160,78 159,79 158,79 157,80 156,79 156,78 157,77 158,77 156,77 156,79 155,80 152,80 153,80 155,82 155,83 154,84 153,83 152,84 151,83 151,82 150,83 149,82 150,83 151,83 152,84 152,85 151,86 150,85 147,85 146,86 144,84 145,83 144,84 146,86 144,88 145,89 145,90 144,91 144,95 143,96 142,95 141,95 140,94 140,93 141,92 142,93 141,92 140,93 139,92 139,91 139,92 138,93 139,92 140,93 140,94 139,95 139,96 138,97 136,95 136,96 135,97 134,97 133,96 132,97 133,97 134,98 133,99 132,99 129,102 128,101 129,102 128,103 128,104 127,105 126,105 125,104 125,105 126,106 124,108 124,109 123,110 124,110 125,111 125,112 124,113 123,112 122,113 121,112 121,111 121,113 122,113 123,114 122,115 121,115 120,116 119,115 119,113 118,114 117,114 118,115 117,116 114,116 113,117 113,118 112,119 111,118 111,117 109,117 108,116 109,117 108,118 109,117 110,118 111,118 112,119 112,120 111,121 112,122 111,123 107,123 106,122 107,121 107,120 106,119 106,118 104,116 106,118 106,119 105,120 104,120 105,120 106,121 105,122 106,123 106,124 105,125 104,125 104,127 105,128 104,129 103,129 102,130 100,128 101,127 102,127 101,127 100,126 101,125 99,127 99,128 100,129 99,130 100,131 99,132 99,133 98,134 97,134 96,133 95,133 94,134 94,135 95,135 96,136 95,137 95,138 92,141 92,142 91,143 90,142 90,141 89,142 88,141 88,140 89,139 88,140 88,141 89,142 89,143 87,145 88,146 87,147 85,147 84,146 85,145 83,147 83,148 84,148 85,149 84,150 82,150 84,152 83,153 82,153 80,151 79,152 76,149 77,148 78,148 79,149 79,148 80,147 81,148 79,146 80,147 79,148 76,148 76,149 78,151 78,152 79,153 77,155 76,154 76,153 75,152 74,152 73,153 72,152 71,152 72,152 73,153 74,152 75,153 75,155 74,156 73,155 72,155 72,156 73,157 73,158 72,159 72,160 71,161 70,160 70,158 70,160 69,161 68,161 67,160 68,161 68,162 67,163 66,163 65,164 64,164 64,165 63,166 64,167 64,168 65,168 63,166 65,164 66,165 66,166 67,167 68,167 69,168 68,169 67,169 65,171 63,171 62,170 63,171 62,172 62,173 61,174 60,173 60,172 59,172 57,174 56,174 57,174 58,173 59,173 60,174 59,175 60,174 61,174 63,176 63,177 62,178 61,177 59,177 59,178 58,179 57,178 57,176 57,178 56,179 55,179 54,180 55,180 56,181 54,183 51,180 52,181 52,182 53,183 52,184 53,185 52,186 53,187 52,188 52,190 51,191 50,190 50,189 49,188 49,190 48,191 49,192 49,193 48,194 46,194 45,193 44,194 43,194 44,194 45,195 44,196 42,196 43,196 44,197 43,198 43,199 44,199 45,200 45,201 44,202 43,201 42,201 43,201 44,202 43,203 41,203 40,204 40,205 38,207 36,205 36,204 36,205 37,206 37,207 38,207 40,205 42,207 42,208 41,209 39,209 38,210 39,211 40,210 41,211 41,212 40,213 41,214 40,215 39,215 38,214 38,213 37,214 36,213 36,214 37,214 38,215 37,216 35,216 33,218 34,217 35,218 35,219 36,220 36,221 35,222 34,221 35,222 34,223 34,224 33,225 32,224 31,225 31,227 33,229 33,230 32,231 31,230 29,232 28,231 28,230 27,230 26,229 27,228 25,230 25,231 26,231 27,230 28,231 28,233 30,231 31,232 31,233 30,234 30,235 29,236 28,235 26,235 25,234 25,233 25,234 26,235 25,236 24,236 24,237 25,238 24,239 24,241 25,242 24,243 25,244 24,245 22,245 24,245 25,246 23,248 23,249 21,251 20,251 19,252 20,253 20,254 19,255 18,254 17,254 17,255 16,256 17,257 17,259 16,260 18,262 18,264 17,265 16,265 17,265 18,264 19,265 19,266 17,268 16,267 16,268 15,269 14,268 15,269 15,270 16,271 14,273 12,271 11,272 12,273 13,272 14,273 15,273 16,274 15,275 16,276 14,278 14,279 15,278 16,279 16,280 17,280 18,281 17,282 16,282 15,283 14,282 16,284 15,285 13,285 11,287 10,287 9,286 11,284 8,287 9,286 11,288 11,289 12,289 13,290 11,288 13,286 15,288 15,289 16,289 17,290 16,291 15,291 15,292 14,293 13,292 12,292 11,291 11,292 9,294 8,293 9,294 9,295 7,297 9,295 10,295 11,294 12,295 12,297 11,298 10,297 9,298 9,303 8,304 7,304 9,304 10,305 9,306 9,307 8,308 6,306 6,307 7,308 6,309 6,310 5,311 6,311 7,312 5,314 5,315 4,316 3,315 3,314 1,312 2,311 1,310 1,307 0,308 0,309 1,310 1,311 0,312 1,312 2,313 2,314 3,315 2,316 1,316 2,317 1,318 2,319 3,319 4,320 3,321 2,321 8,321 9,322 7,324 6,324 5,323 4,324 3,323 1,323 0,322 0,323 1,323 2,324 2,325 3,325 4,326 4,327 2,329 1,328 1,327 1,330 0,331 0,333 1,333 2,334 2,335 1,336 0,336 0,337 1,338 2,337 3,337 5,339 5,340 4,341 3,340 0,340 1,341 1,343 0,344 0,345 1,346 0,347 2,347 3,348 1,350 0,349 1,350 2,350 3,351 3,352 2,353 1,352 0,352 1,353 1,354 0,355 0,357 1,358 1,359 0,360 0,362 1,363 0,364 0,565 1,566 0,567 0,593 1,594 0,595 0,602 1,603 0,604 0,608 1,609 0,610 0,618 1,619 0,620 0,622 1,623 0,624 0,626 1,627 0,628 0,630 1,631 0,632 2,634 1,635 0,635 0,636 1,637 1,638 0,639 2,639 4,641 3,642 2,642 1,641 2,642 1,643 0,643 0,645 1,646 0,647 0,649 1,649 1,647 2,646 4,648 3,649 4,649 5,648 7,650 5,652 10,652 11,653 10,654 11,654 12,653 13,653 14,654 14,655 12,657 11,657 10,656 10,657 12,657 13,658 13,659 12,660 11,659 10,659 11,660 10,661 9,661 8,660 8,659 7,659 6,658 7,657 8,657 7,657 6,658 7,659 7,661 8,660 9,661 9,662 7,664 9,664 10,665 9,666 9,667 8,668 7,667 7,666 7,667 8,668 8,670 9,671 8,672 9,671 11,671 13,669 14,669 15,670 14,671 16,673 18,673 19,674 18,675 17,675 17,676 19,676 20,677 19,678 17,678 16,679 17,680 16,681 17,680 18,681 17,680 18,679 19,679 20,680 21,680 22,681 21,682 20,682 19,683 18,683 17,684 16,684 16,685 17,686 17,687 17,686 19,684 19,683 20,682 21,682 23,684 22,685 22,686 21,687 20,686 19,687 20,687 21,688 20,689 19,689 20,689 22,691 22,692 20,694 22,692 23,693 23,694 25,696 25,697 27,697 28,698 27,699 26,699 27,700 26,701 25,701 25,702 24,703 25,702 26,703 27,703 28,704 27,705 26,705 27,705 28,704 29,704 30,703 31,704 31,705 32,705 33,706 33,707 32,708 32,709 31,710 30,709 29,709 28,708 29,707 30,707 29,707 28,708 27,707 27,708 28,709 28,710 27,711 26,710 25,711 26,710 27,711 28,710 29,711 30,711 31,710 32,710 33,711 31,713 31,715 31,713 32,712 34,714 33,715 34,716 33,717 33,719 34,719 35,720 34,721 33,721 36,721 37,722 35,720 36,719 39,719 40,720 40,721 39,722 39,724 38,725 36,725 36,726 37,725 38,726 39,725 40,726 40,728 39,729 40,729 41,730 41,731 40,732 40,733 41,732 43,734 42,735 42,736 43,736 43,734 44,733 45,734 45,736 46,735 47,736 47,737 46,738 45,738 46,739 46,741 46,740 47,739 48,740 48,741 49,742 48,743 46,743 47,743 48,744 48,745 47,746 48,747 49,747 49,746 50,745 52,745 53,746 52,747 51,747 51,749 50,750 49,750 48,749 47,750 46,749 47,750 48,749 49,750 52,750 53,751 51,753 52,753 53,754 53,753 54,752 56,754 54,756 54,759 54,758 56,756 57,757 57,761 57,758 58,757 59,758 59,759 61,761 60,762 59,762 58,763 55,763 56,763 57,764 56,765 58,763 59,764 59,765 58,766 58,767 58,766 59,765 60,766 60,765 61,764 62,765 62,767 60,769 59,769 60,769 61,768 62,769 63,769 64,770 64,771 65,772 65,775 64,776 63,776 62,775 62,774 61,773 60,774 61,775 62,775 63,776 64,776 65,777 65,775 66,774 67,775 67,777 68,777 69,778 68,779 70,779 71,780 70,781 69,781 67,783 66,782 66,781 65,781 65,782 64,783 64,784 64,783 65,782 66,782 67,783 69,781 70,782 70,783 69,784 71,782 72,783 75,783 76,784 75,785 74,785 75,786 73,788 74,788 76,790 77,790 77,789 78,788 79,789 79,790 80,791 79,792 81,792 79,790 80,789 81,789 81,788 82,787 84,789 84,790 85,791 86,791 87,792 88,791 89,792 89,793 88,794 87,794 88,795 88,796 89,797 89,799 88,800 87,799 85,799 84,798 85,799 87,799 88,800 87,801 88,802 87,803 90,806 93,803 94,804 94,805 93,806 94,806 95,805 96,805 97,806 96,807 97,808 96,809 97,809 98,810 99,810 100,809 101,810 101,811 103,811 105,813 104,814 103,814 102,813 102,815 103,814 104,815 104,816 103,817 103,819 104,820 104,821 107,824 107,826 106,827 107,826 107,824 108,823 109,824 109,827 109,824 111,822 112,822 113,821 114,822 117,822 118,823 117,824 117,825 116,826 115,825 115,824 114,825 115,825 116,826 115,827 116,828 117,827 118,827 119,828 119,829 121,831 120,832 122,830 123,831 123,833 123,832 124,831 125,832 125,834 126,833 128,835 127,836 125,836 126,836 127,837 125,839 126,839 126,838 127,837 129,839 130,839 131,840 131,843 132,844 132,846 131,847 131,848 131,847 132,846 133,846 134,845 135,846 136,845 138,847 139,847 140,848 139,849 138,849 139,850 142,850 143,851 141,853 140,852 139,852 138,853 139,852 140,853 140,854 142,852 143,853 144,853 145,854 145,855 144,856 146,858 147,857 147,856 148,855 149,856 150,855 151,855 153,857 153,856 154,855 155,856 155,858 154,859 155,860 155,858 157,856 158,857 158,858 157,859 158,860 156,862 155,862 157,862 159,864 159,867 160,867 162,865 163,866 163,868 160,871 159,870 159,869 158,870 159,870 160,871 161,871 161,870 162,869 163,870 163,871 164,870 165,870 166,871 165,872 166,871 166,870 168,868 169,869 169,871 168,872 168,873 168,872 170,870 171,871 173,871 175,873 175,875 174,876 173,875 172,875 171,874 171,873 171,874 172,875 172,878 173,878 175,880 175,881 174,882 176,880 177,881 176,880 177,879 178,879 179,880 180,879 181,879 182,880 181,881 181,882 180,883 180,886 180,883 181,882 182,883 183,883 185,881 184,880 186,878 187,879 187,882 186,883 187,883 188,884 188,887 191,887 192,888 193,887 195,887 196,888 195,889 194,889 195,890 194,891 196,893 197,893 198,894 199,893 200,893 201,894 200,895 201,894 203,896 203,897 203,896 202,895 202,894 201,894 200,893 201,892 200,893 199,893 198,892 200,890 200,888 202,886 204,886 205,887 204,888 204,889 205,890 203,892 204,893 205,893 206,894 205,895 207,897 206,898 207,899 206,900 207,901 209,899 212,899 209,899 207,897 207,896 206,896 205,895 206,894 207,894 207,892 208,891 209,892 209,896 210,897 211,897 210,897 209,896 210,895 211,895 212,894 213,895 213,897 215,899 218,896 219,897 219,898 218,899 218,903 220,903 223,906 225,904 227,906 228,905 229,906 229,907 230,906 231,906 233,908 232,909 231,909 235,909 236,910 236,911 237,912 237,913 238,912 238,911 239,910 239,909 240,908 241,909 241,911 240,912 242,914 242,915 241,916 239,914 237,916 236,916 237,916 238,915 239,915 240,916 240,917 241,918 241,919 241,918 242,917 243,918 244,918 245,919 247,919 248,920 248,918 247,917 248,916 251,916 252,917 252,918 253,919 253,920 254,921 255,921 256,920 257,920 258,919 259,920 259,921 260,922 259,923 260,922 261,923 261,924 262,925 262,924 263,923 263,922 264,921 265,921 264,920 265,919 266,919 268,921 266,923 265,923 266,923 267,924 266,925 265,925 265,927 265,926 266,925 267,925 269,927 270,926 271,926 272,927 271,928 271,930 272,931 271,930 271,929 272,928 273,929 272,928 273,927 274,927 276,929 275,930 276,931 278,931 279,932 279,931 280,930 281,931 281,928 282,927 283,928 283,930 284,931 283,932 284,933 283,934 284,934 285,933 288,933 289,934 288,935 287,935 287,936 288,936 289,937 289,939 289,938 290,937 291,937 292,936 293,937 293,938 294,938 295,939 294,940 292,940 291,939 292,940 292,942 291,943 290,943 289,942 291,944 291,943 292,942 292,941 293,940 295,942 296,941 297,942 297,943 296,944 297,943 297,942 298,941 300,943 299,942 300,941 301,941 302,942 302,943 304,941 305,942 306,942 306,941 305,940 305,939 304,940 303,939 303,938 304,937 308,937 309,938 309,939 308,940 307,939 308,940 308,941 309,942 308,943 309,943 310,944 309,943 310,942 311,942 314,945 315,945 317,947 316,948 315,948 314,949 315,950 314,951 316,949 318,949 318,948 319,947 318,946 319,945 320,945 321,946 324,943 325,944 325,945 324,946 324,947 325,948 324,949 323,949 322,950 323,949 324,949 325,948 326,949 325,948 325,947 327,945 328,946 328,949 329,948 330,948 331,949 329,951 330,951 330,950 331,949 332,950 332,951 332,950 335,947 337,949 336,950 335,950 334,951 335,950 337,950 337,949 338,948 339,948 340,949 340,951 340,950 341,949 345,949 346,950 346,952 345,953 344,952 344,951 344,952 343,953 344,954 343,955 344,955 344,954 345,953 348,953 349,954 351,954 352,955 352,956 351,957 350,957 351,957 352,956 354,958 353,959 356,959 356,958 357,957 358,958 358,959 359,959 360,960 359,961 360,960 360,959 361,958 362,959 363,959 364,958 364,956 365,955 366,956 366,957 367,958 366,959 368,959 369,960 369,961 370,961 371,962 373,960 374,960 374,959 376,957 377,958 377,960 378,959 380,959 381,960 381,963 382,964 382,965 382,964 381,963 381,961 382,960 386,964 388,964 389,963 390,964 390,965 389,966 390,965 390,964 391,963 392,964 392,965 394,967 394,966 395,965 396,966 397,966 398,965 399,965 400,966 399,967 399,968 400,968 401,969 402,969 403,970 403,971 403,968 404,967 406,969 405,970 406,970 407,969 409,969 408,968 409,967 410,967 413,970 412,971 411,971 410,972 409,972 410,973 410,974 410,972 411,971 415,971 416,972 415,973 417,971 418,971 419,972 422,972 423,971 425,973 425,975 424,976 425,976 425,975 426,974 426,973 427,972 428,973 428,975 429,976 428,977 427,977 426,978 426,979 427,979 428,978 430,980 431,979 432,980 432,981 434,983 434,982 435,981 437,983 440,983 441,984 441,985 442,985 441,984 443,982 444,983 445,982 446,983 446,985 445,986 445,987 446,987 447,988 447,989 447,988 446,987 446,986 448,984 449,985 450,985 451,986 451,987 449,989 450,989 451,988 456,988 457,989 457,991 458,991 459,992 456,995 457,995 457,994 458,993 459,994 459,995 460,996 461,996 462,995 463,995 464,996 464,997 466,999 465,1000 464,1000 465,1000 466,999 467,1000 467,1001 468,1002 468,1003 467,1004 467,1005 468,1006 467,1007 468,1007 468,1005 469,1004 470,1005 470,1007 470,1005 472,1003 473,1004 473,1005 474,1006 474,1007 475,1006 476,1006 477,1007 478,1006 479,1007 479,1010 478,1011 478,1012 479,1012 480,1013 479,1014 482,1014 483,1015 483,1018 482,1019 481,1018 480,1019 479,1018 479,1017 480,1016 481,1016 480,1016 477,1019 479,1021 478,1020 478,1019 479,1018 481,1020 482,1020 483,1021 483,1022 482,1023 483,1023 484,1022 485,1022 486,1023 494,1023 495,1022 496,1023 778,1023 779,1022 780,1023 782,1023 783,1022 782,1023 781,1022 781,1021 782,1020 783,1020 784,1019 784,1018 785,1017 784,1016 784,1015 785,1014 786,1015 785,1014 787,1012 787,1011 787,1012 786,1013 785,1012 785,1011 784,1010 785,1009 788,1009 787,1008 788,1007 789,1007 790,1006 789,1007 788,1006 787,1007 786,1006 785,1006 784,1005 784,1004 785,1003 786,1004 789,1004 789,1003 790,1002 791,1003 791,1004 792,1003 793,1004 791,1002 791,1001 792,1000 793,1001 792,1000 794,998 797,1001 797,1000 798,999 799,999 798,999 796,997 796,996 797,995 799,995 798,994 800,992 801,992 803,994 803,993 804,992 805,993 804,992 803,993 802,993 801,992 802,991 800,989 802,987 803,987 805,989 804,990 805,989 805,988 806,987 805,986 805,985 804,985 803,984 805,982 807,984 807,985 808,986 808,987 808,986 809,985 809,984 808,983 810,981 810,980 813,977 814,978 814,979 812,981 814,979 814,978 815,977 816,977 817,976 818,977 819,977 818,977 817,976 818,975 819,975 818,975 817,974 817,973 818,972 819,973 821,973 820,972 821,971 820,972 819,971 819,970 821,968 823,970 823,971 823,970 824,969 823,968 824,967 823,966 825,964 826,965 826,967 827,968 826,969 827,969 827,968 826,967 826,965 827,964 828,965 828,966 829,966 827,964 827,963 828,962 829,963 830,963 831,964 830,963 831,962 831,961 832,960 831,961 830,961 829,962 828,962 827,961 828,960 828,959 829,958 830,959 830,957 831,956 833,958 833,957 832,956 833,955 833,954 834,953 835,954 835,953 834,953 833,952 834,951 836,951 838,953 837,954 839,952 840,953 844,953 845,952 844,951 845,950 845,948 846,947 847,947 847,944 846,943 847,942 847,941 846,941 845,940 846,939 848,939 847,938 849,936 850,937 851,936 851,935 852,934 853,934 852,934 851,935 850,934 850,932 851,931 851,930 852,929 853,930 853,931 854,932 853,931 854,930 853,930 852,929 854,927 855,927 857,929 856,930 856,933 856,930 857,929 857,928 858,927 859,927 859,925 858,925 856,923 856,922 857,921 857,920 858,919 859,920 859,922 859,919 860,918 861,919 862,919 864,917 866,919 866,917 868,915 866,917 865,916 865,915 867,913 869,913 869,912 870,911 870,910 871,909 872,909 873,910 872,911 872,912 873,912 874,911 874,910 873,910 872,909 874,907 876,909 874,907 875,906 875,904 876,903 876,902 877,901 878,902 878,904 879,905 878,906 879,905 880,905 879,905 878,904 878,901 877,900 878,899 879,899 880,900 880,901 881,901 879,899 881,897 882,897 883,898 883,900 883,897 884,896 886,898 884,896 884,894 885,893 888,893 888,891 887,890 887,891 885,893 884,892 884,891 885,890 884,889 886,887 887,888 888,888 889,889 890,889 889,889 888,888 889,887 891,887 892,886 891,885 890,886 889,885 889,884 890,883 891,883 891,880 892,879 895,879 897,881 895,879 895,878 896,877 897,877 897,876 896,875 896,874 897,873 899,873 900,874 899,875 900,876 900,877 900,876 902,874 903,875 902,874 903,873 904,873 903,873 901,875 900,874 900,872 899,872 897,870 898,869 899,869 900,870 901,870 902,869 902,868 904,866 905,867 905,868 906,869 907,869 908,870 907,869 906,869 905,868 905,867 904,866 905,865 907,865 907,863 908,862 909,862 908,862 907,863 906,863 905,862 904,863 903,863 902,862 905,859 904,858 905,857 906,857 907,858 907,859 907,857 906,856 907,855 908,855 909,856 910,855 909,855 908,854 908,853 909,852 910,853 911,853 913,855 912,856 913,857 912,856 913,855 913,854 915,852 913,854 911,852 911,850 912,849 913,850 913,851 914,850 915,850 914,849 915,848 916,848 916,847 917,846 918,847 917,846 918,845 920,845 920,844 916,844 915,843 915,842 916,841 917,842 916,841 917,840 918,840 919,841 920,840 920,839 921,838 922,839 921,838 922,837 921,836 921,834 922,833 923,834 923,835 924,836 923,835 923,833 924,832 925,833 925,832 926,831 927,831 927,830 928,829 929,830 929,831 930,832 929,833 931,833 930,832 931,831 932,831 932,830 933,829 932,829 931,828 931,824 932,823 933,824 933,826 934,826 935,825 935,824 937,822 938,823 936,821 937,822 936,823 935,823 934,822 934,820 936,818 937,819 938,819 940,817 941,818 940,817 941,816 940,815 942,813 941,812 941,810 942,809 943,810 943,811 944,812 944,811 945,810 945,808 946,807 945,806 946,805 947,805 947,801 946,800 948,798 949,799 950,799 949,799 948,798 949,797 950,797 950,796 951,795 952,796 952,797 954,799 955,798 956,798 953,798 952,797 953,796 953,795 955,793 956,793 957,792 957,791 958,790 959,790 960,789 961,790 961,789 959,789 958,790 957,789 957,787 958,786 959,787 959,786 960,785 961,786 961,787 961,786 962,785 963,786 963,788 963,786 964,785 964,784 963,785 962,785 961,784 963,782 964,782 965,781 966,782 966,783 966,780 967,779 968,780 967,779 965,779 964,780 963,779 963,778 965,776 966,777 968,777 966,775 967,774 967,773 966,773 965,772 966,771 967,771 968,770 969,771 969,772 969,770 972,767 973,768 974,768 974,767 973,768 972,767 972,764 973,763 972,762 973,761 974,761 975,762 975,763 975,762 976,761 977,761 978,760 979,760 980,761 979,760 978,760 977,759 978,758 978,757 979,756 980,757 980,756 978,754 981,751 982,751 981,751 980,750 981,749 982,749 983,748 985,750 984,751 986,751 987,750 985,748 984,748 983,747 983,746 985,744 987,746 987,747 988,748 989,748 988,748 987,747 987,746 988,745 987,744 989,742 991,744 989,742 989,740 990,739 991,739 992,740 991,741 992,740 994,742 992,740 993,739 993,738 992,738 991,737 992,736 991,736 989,734 991,732 992,733 993,733 992,733 991,732 992,731 994,731 995,732 996,732 997,733 996,732 996,731 995,730 996,729 995,728 995,725 994,725 993,724 993,722 994,721 995,722 995,723 996,723 997,724 997,726 998,725 995,722 996,721 995,720 997,718 998,718 999,719 999,716 1000,715 1002,715 1003,716 1003,715 1001,715 1000,714 1001,713 1001,712 1000,711 1002,709 1003,709 1004,710 1003,711 1004,710 1005,710 1004,710 1003,709 1003,707 1004,706 1005,707 1006,707 1005,707 1003,705 1002,705 1003,705 1004,706 1003,707 1001,707 1000,706 1000,704 1001,703 1004,703 1004,699 1005,698 1007,698 1006,697 1006,696 1007,695 1008,695 1009,694 1010,695 1009,694 1008,695 1007,695 1006,694 1006,693 1008,691 1007,690 1007,689 1008,688 1009,689 1008,688 1007,688 1006,687 1006,685 1005,685 1004,684 1005,683 1007,683 1006,682 1008,680 1009,681 1009,682 1009,681 1008,680 1010,678 1011,679 1011,681 1011,680 1012,679 1012,676 1012,678 1011,679 1010,678 1010,677 1009,678 1009,679 1008,680 1007,680 1007,681 1006,682 1005,681 1005,678 1006,677 1007,677 1008,676 1007,675 1008,674 1008,673 1007,672 1007,671 1008,670 1010,670 1011,671 1012,671 1011,671 1010,670 1011,669 1013,669 1014,670 1014,671 1014,670 1013,669 1012,669 1011,668 1010,669 1009,668 1008,669 1007,669 1006,668 1007,667 1007,666 1008,665 1008,664 1009,663 1010,663 1009,663 1008,664 1007,664 1006,663 1007,662 1007,661 1006,661 1005,660 1006,659 1007,659 1008,658 1009,659 1008,658 1009,657 1010,657 1009,656 1007,656 1005,654 1006,653 1005,652 1005,651 1004,652 1003,652 1002,653 1001,652 1001,651 1000,650 1001,649 1005,649 1005,648 1004,649 1003,648 1003,647 1004,646 1004,644 1005,643 1007,645 1006,646 1007,645 1009,647 1008,648 1009,647 1007,645 1008,644 1006,642 1007,641 1007,640 1007,641 1005,643 1002,643 1001,642 1001,641 1002,640 1003,641 1004,641 1003,641 1002,640 1004,638 1004,637 1003,636 1004,635 1002,637 1001,637 1000,636 999,636 998,635 1000,633 1001,633 999,633 998,632 999,631 998,630 998,629 997,629 996,628 996,627 995,626 995,623 996,622 998,622 998,620 997,621 996,621 995,620 995,618 997,616 996,617 994,617 993,616 994,615 993,615 992,616 991,616 990,615 990,612 991,611 990,610 992,608 991,609 990,608 990,606 992,604 990,606 988,604 988,603 989,602 989,601 988,600 988,598 989,597 988,598 988,600 987,601 985,601 984,600 985,599 986,599 986,597 985,598 984,597 984,594 985,593 988,593 989,592 988,593 985,593 984,592 984,591 985,590 986,591 985,590 984,591 984,592 985,593 984,594 984,596 983,597 982,596 982,595 981,596 980,596 979,595 980,594 980,593 981,592 982,593 981,592 982,591 981,590 981,589 982,588 983,588 982,587 980,587 979,586 979,584 980,583 981,584 981,585 982,584 983,585 982,584 982,583 981,582 982,581 980,581 980,582 979,583 978,582 978,580 976,580 976,581 975,582 972,579 972,578 973,577 974,577 975,578 976,577 977,577 977,575 976,575 977,576 976,577 973,577 971,575 972,574 974,574 974,573 973,574 972,574 971,573 971,572 970,572 969,571 969,570 970,569 971,570 972,570 972,569 973,568 972,569 970,569 969,570 968,569 968,568 967,567 967,565 968,564 970,566 972,566 972,565 969,562 968,562 967,561 968,560 967,561 966,561 965,560 966,559 965,558 966,557 965,558 963,556 963,555 962,555 961,554 962,553 963,553 962,553 961,552 962,551 964,551 963,551 959,547 960,546 959,546 958,545 959,544 960,544 958,542 959,541 958,540 959,539 958,540 957,540 958,540 959,541 958,542 959,543 958,544 955,544 954,545 952,543 952,542 953,541 954,542 955,541 956,542 955,541 955,540 954,540 953,539 953,538 952,537 952,536 954,534 950,538 949,538 948,537 948,536 950,534 951,534 950,534 949,533 949,532 950,531 951,531 950,531 949,532 948,532 946,534 945,533 944,533 943,532 944,531 945,531 944,530 945,529 947,529 948,528 947,529 945,529 944,528 944,527 945,526 946,527 945,526 946,525 944,527 943,527 942,526 942,525 943,524 944,524 945,523 946,523 944,523 943,522 943,521 945,519 943,521 942,520 941,520 940,519 942,517 941,516 941,515 940,516 938,514 939,513 940,513 940,512 939,511 941,509 939,507 939,505 939,506 938,507 936,507 935,506 937,504 936,504 936,505 935,506 934,506 932,504 932,503 933,502 933,501 935,499 934,500 933,500 932,501 931,500 930,500 929,499 929,498 930,497 931,498 931,497 929,497 928,496 929,495 931,495 932,494 931,495 930,494 930,493 931,492 930,493 928,491 928,490 929,489 930,489 931,488 932,488 931,488 929,486 929,485 928,485 927,484 928,483 928,482 927,481 928,480 927,481 928,482 928,483 927,484 926,483 925,484 924,484 923,483 923,481 924,480 924,478 923,477 924,478 924,479 923,480 921,478 921,476 922,475 921,475 920,474 921,473 923,473 919,473 918,472 918,471 919,470 920,471 918,469 919,468 920,468 921,467 920,468 919,467 919,463 919,466 917,468 916,468 915,467 915,465 916,464 917,465 917,464 916,463 916,462 917,461 917,460 916,460 914,458 914,457 913,457 912,456 913,455 915,455 914,455 913,454 915,452 914,451 915,452 914,453 913,453 912,452 912,451 911,450 911,448 913,446 914,446 915,447 916,446 917,447 916,446 917,445 916,444 915,444 916,444 917,445 915,447 913,445 913,444 912,445 911,445 909,443 910,442 911,442 911,441 913,439 911,441 910,440 910,439 911,438 911,437 911,438 910,439 909,438 909,436 908,436 907,435 908,434 908,430 907,431 905,429 905,428 906,427 907,428 906,427 907,426 908,426 907,425 907,424 906,423 907,422 907,421 906,421 905,420 905,419 903,419 902,418 903,417 904,417 903,417 902,416 903,415 904,415 905,414 906,415 905,414 906,413 905,414 903,412 904,411 903,411 903,412 902,413 901,412 901,411 899,409 899,407 900,406 901,407 901,408 902,409 902,405 899,405 898,404 898,403 899,402 900,403 899,402 899,401 898,400 899,399 900,399 902,401 902,403 903,403 903,402 901,400 902,399 903,399 902,398 903,397 905,397 904,397 903,396 903,395 902,394 903,393 904,393 903,393 902,392 901,392 900,391 900,390 901,389 902,390 901,389 902,388 901,388 900,389 899,388 899,384 901,382 902,383 901,382 902,381 901,382 900,381 900,378 901,377 901,376 902,375 903,376 903,377 904,378 903,379 902,379 903,379 904,378 905,379 906,379 905,379 904,378 905,377 902,374 903,373 902,372 903,371 904,371 903,370 903,368 902,367 904,365 903,366 902,365 901,366 900,366 899,365 900,364 899,364 898,363 898,362 899,361 900,362 901,362 900,362 899,361 900,360 901,360 902,359 901,359 900,358 901,357 900,356 902,354 903,355 903,356 903,355 899,351 900,350 901,350 902,351 900,349 901,348 902,348 902,347 903,346 902,347 901,346 901,345 901,346 902,347 899,350 897,348 898,347 899,347 898,347 897,346 897,345 898,344 899,345 899,343 900,342 899,341 898,342 897,341 897,340 898,339 897,338 898,337 900,337 901,336 902,337 902,338 901,339 901,340 902,340 904,338 903,339 902,338 902,337 901,336 901,335 902,334 901,335 900,334 899,334 898,333 898,332 899,331 898,331 897,330 897,329 898,328 901,328 902,327 903,327 904,328 903,329 904,328 904,327 903,327 902,326 903,325 902,324 902,322 901,322 900,321 900,318 899,317 900,316 899,315 899,314 900,313 901,314 900,313 902,311 903,312 903,314 904,314 905,315 904,314 904,312 903,312 902,311 903,310 899,310 898,311 897,310 897,308 898,307 899,308 900,308 899,307 897,307 896,306 897,305 899,305 898,305 897,304 898,303 899,303 899,302 898,301 899,300 898,301 897,300 897,298 898,297 899,298 900,297 900,295 901,294 902,295 902,293 901,294 900,293 900,292 899,291 898,291 897,290 898,289 900,289 900,288 899,287 900,286 900,285 899,284 900,283 901,283 902,284 902,285 903,285 902,284 903,283 902,284 901,283 901,281 901,282 900,283 898,281 900,279 902,279 901,279 900,278 900,277 899,276 901,274 903,276 904,276 903,276 900,273 898,273 897,272 897,271 896,271 895,270 896,269 898,269 897,268 898,267 899,267 898,267 897,266 897,264 893,264 892,263 894,261 895,262 896,261 897,261 896,261 895,262 894,261 894,260 895,259 895,257 893,259 892,258 892,256 891,256 890,255 891,254 892,254 892,253 891,252 890,253 889,252 889,251 888,250 888,249 889,248 891,250 889,248 890,247 890,246 889,246 887,244 888,243 890,243 891,244 891,243 888,243 887,242 888,241 888,239 890,237 892,237 890,237 889,236 889,235 888,234 889,233 890,233 889,233 888,232 886,232 885,231 887,229 886,230 885,230 884,229 883,229 883,230 882,231 881,230 881,228 882,227 883,227 883,226 882,225 883,224 882,223 880,223 879,224 877,222 877,221 878,220 879,221 879,220 878,219 878,218 877,217 875,217 874,218 873,217 873,216 874,215 876,215 875,215 874,214 874,213 872,215 871,215 870,214 871,213 870,212 871,211 871,210 870,210 869,211 864,211 863,210 865,208 865,207 866,206 867,206 868,207 868,206 869,205 870,206 869,205 870,204 871,204 873,206 871,204 872,203 870,203 869,204 869,205 868,206 867,206 866,205 867,204 867,203 866,204 864,202 864,201 865,200 867,200 866,199 865,199 865,200 864,201 863,200 862,201 861,201 860,200 862,198 863,198 861,198 859,196 860,195 861,195 862,194 864,196 862,194 865,191 863,193 862,192 861,192 862,192 863,193 862,194 860,194 859,193 859,191 861,189 859,191 856,188 856,187 857,186 857,185 856,184 855,184 854,183 855,182 854,183 852,181 853,180 852,179 853,178 854,178 853,178 852,177 850,177 849,176 850,175 849,174 847,174 846,173 845,173 844,172 844,171 845,170 844,169 843,169 843,170 844,171 844,172 843,173 842,173 841,172 841,170 840,169 840,168 839,169 838,169 837,168 838,167 837,166 837,164 838,163 839,163 840,164 839,165 840,164 839,163 838,163 837,164 836,164 835,163 835,162 834,163 833,163 832,162 834,160 836,160 835,159 834,159 833,158 833,157 830,154 831,153 830,154 832,156 832,157 833,158 832,159 830,159 829,160 828,159 828,156 827,155 826,156 825,155 825,154 826,153 827,153 824,150 825,149 826,149 827,150 828,150 829,151 829,152 829,151 828,150 828,149 827,150 825,148 828,145 827,145 827,146 826,147 825,146 825,147 824,148 822,146 824,144 825,144 824,143 824,144 823,145 820,142 821,141 821,140 822,139 821,140 819,140 818,141 816,139 817,138 817,137 816,137 815,136 814,137 813,136 813,135 814,134 814,133 815,132 816,133 816,132 815,132 814,131 815,132 814,133 813,133 811,135 809,133 811,131 810,132 809,132 808,131 809,130 809,129 808,128 809,127 808,127 808,131 807,132 806,131 805,131 804,130 805,129 805,127 806,126 805,126 804,125 802,125 801,126 800,125 798,125 797,126 796,125 796,124 798,122 799,123 801,123 800,122 801,121 800,120 799,121 798,121 797,120 797,119 798,118 799,118 798,117 797,118 796,117 794,117 793,116 794,115 796,115 795,114 795,111 793,111 791,113 790,112 790,111 789,111 788,110 788,109 789,108 790,109 792,109 791,108 790,109 789,108 788,108 788,109 787,110 786,109 786,108 785,109 784,108 784,106 783,105 784,104 784,103 785,102 784,103 782,101 783,100 782,100 781,99 780,99 779,98 779,96 778,95 778,94 777,93 777,92 776,92 776,93 775,94 774,94 773,93 774,92 774,91 774,92 773,93 771,91 768,91 767,90 767,89 768,88 769,89 770,89 772,87 772,86 771,87 769,87 768,88 767,87 767,86 769,84 768,85 767,84 767,81 767,84 766,85 765,84 764,85 762,85 761,84 762,83 763,83 759,83 758,82 760,80 761,81 763,79 762,78 762,77 761,78 760,77 758,77 757,76 757,75 757,76 758,77 758,78 757,79 755,77 755,75 754,75 753,74 754,73 753,72 754,71 753,70 753,69 752,69 751,70 750,69 749,69 748,70 747,70 746,71 744,69 744,68 745,67 744,66 744,64 743,64 742,63 741,64 740,64 739,63 740,62 740,60 739,59 739,58 740,57 738,55 737,56 736,55 736,54 735,53 736,52 737,52 738,53 737,52 736,52 734,54 733,53 733,52 731,52 730,51 731,52 730,53 729,53 728,52 728,49 730,47 731,48 731,49 732,50 731,49 731,48 732,47 732,46 731,47 728,47 727,48 725,46 726,45 725,45 725,46 726,47 725,48 724,48 723,47 723,45 722,44 723,43 723,42 721,42 720,41 720,39 720,40 719,41 718,40 717,40 716,41 715,40 715,38 714,37 715,36 715,35 714,36 712,36 711,35 712,34 712,33 711,33 710,32 709,32 708,33 707,32 707,31 708,30 707,29 708,28 707,27 707,26 709,24 708,24 707,25 706,25 705,24 705,23 704,23 702,21 701,21 700,20 700,19 700,20 698,22 696,20 697,19 698,19 697,19 695,21 694,20 694,19 693,18 693,16 692,15 693,14 691,14 690,13 689,14 690,15 689,16 688,16 687,17 686,16 686,15 687,14 685,12 686,11 687,11 688,12 686,10 687,9 688,9 687,9 685,11 684,10 684,9 683,8 680,8 678,10 677,10 676,9 677,8 676,7 676,6 675,5 676,4 677,4 678,5 678,6 678,5 677,4 675,4 674,3 673,3 671,1 670,1 668,3 666,1 667,0 666,1 664,1 663,0 658,0 657,1 656,0 655,1 654,0 255,0 254,1 253,0 244,0 242,2 242,3 241,4 240,3 240,1 241,0 240,1 239,1 238,0 Z" fill="black" />
</svg>